STARTFONT 2.1
FONT -FontForge-DejaVu Sans Mono-Bold-R-Normal-SansMono--88-840-75-75-C-530-ISO10646-1
SIZE 84 75 75
FONTBOUNDINGBOX 45 66 4 -1
COMMENT "Generated by fontforge, http://fontforge.sourceforge.net"
COMMENT "Copyright (c) 2003 by Bitstream, Inc. All Rights Reserved."
COMMENT "DejaVu changes are in public domain"
STARTPROPERTIES 37
FOUNDRY "FontForge"
FAMILY_NAME "DejaVu Sans Mono"
WEIGHT_NAME "Bold"
SLANT "R"
SETWIDTH_NAME "Normal"
ADD_STYLE_NAME "SansMono"
PIXEL_SIZE 88
POINT_SIZE 840
RESOLUTION_X 75
RESOLUTION_Y 75
SPACING "C"
AVERAGE_WIDTH 530
CHARSET_REGISTRY "ISO10646"
CHARSET_ENCODING "1"
FONTNAME_REGISTRY ""
CHARSET_COLLECTIONS "ASCII ISOLatin1Encoding ISO8859-2 ISO8859-5 ISO8859-7 ISO8859-9 ISO8859-6 ISO8859-4 ISO10646-1"
FONT_NAME "DejaVuSansMono-Bold"
FACE_NAME "DejaVu Sans Mono Bold"
COPYRIGHT "Copyright (c) 2003 by Bitstream, Inc. All Rights Reserved."
FONT_VERSION "2.35"
FONT_ASCENT 67
FONT_DESCENT 21
UNDERLINE_POSITION -8
UNDERLINE_THICKNESS 4
RAW_ASCENT 759
RAW_DESCENT 240
NORM_SPACE 53
RELATIVE_WEIGHT 70
RELATIVE_SETWIDTH 50
SUPERSCRIPT_X 0
SUPERSCRIPT_Y 42
SUPERSCRIPT_SIZE 61
SUBSCRIPT_X 0
SUBSCRIPT_Y 12
SUBSCRIPT_SIZE 61
FIGURE_WIDTH 53
AVG_UPPERCASE_WIDTH 530
ENDPROPERTIES
CHARS 13
STARTCHAR space
ENCODING 32
SWIDTH 602 0
DWIDTH 53 0
BBX 1 1 0 0
BITMAP
00
ENDCHAR
STARTCHAR hyphen
ENCODING 45
SWIDTH 602 0
DWIDTH 53 0
BBX 27 13 13 19
BITMAP
FFFFFFE0
FFFFFFE0
FFFFFFE0
FFFFFFE0
FFFFFFE0
FFFFFFE0
FFFFFFE0
FFFFFFE0
FFFFFFE0
FFFFFFE0
FFFFFFE0
FFFFFFE0
FFFFFFE0
ENDCHAR
STARTCHAR zero
ENCODING 48
SWIDTH 602 0
DWIDTH 53 0
BBX 42 66 5 -1
BITMAP
0000FFC00000
0007FFF80000
001FFFFE0000
003FFFFF0000
00FFFFFFC000
01FFFFFFE000
03FFFFFFF000
03FFFFFFF000
07FFFFFFF800
0FFFFFFFFC00
0FFFFFFFFC00
1FFFE1FFFC00
1FFF807FFE00
1FFF003FFE00
3FFF003FFF00
3FFE001FFF00
3FFE001FFF00
3FFE001FFF00
7FFC000FFF80
7FFC000FFF80
7FFC000FFF80
7FFC000FFF80
7FFC000FFF80
FFF80007FF80
FFF80007FFC0
FFF80007FFC0
FFF80007FFC0
FFF81F07FFC0
FFF83F87FFC0
FFF87FC7FFC0
FFF8FFE7FFC0
FFF8FFE7FFC0
FFF8FFE7FFC0
FFF8FFE7FFC0
FFF8FFE7FFC0
FFF87FC7FFC0
FFF83F87FFC0
FFF81F07FFC0
FFF80007FFC0
FFF80007FFC0
FFF80007FFC0
FFF80007FFC0
FFF80007FF80
7FFC000FFF80
7FFC000FFF80
7FFC000FFF80
7FFC000FFF80
7FFC000FFF80
3FFE001FFF00
3FFE001FFF00
3FFE001FFF00
3FFF003FFF00
1FFF003FFE00
1FFF807FFE00
1FFFE1FFFC00
0FFFFFFFFC00
0FFFFFFFFC00
07FFFFFFF800
03FFFFFFF000
03FFFFFFF000
01FFFFFFE000
00FFFFFFC000
007FFFFF0000
001FFFFE0000
0007FFF80000
0000FFC00000
ENDCHAR
STARTCHAR one
ENCODING 49
SWIDTH 602 0
DWIDTH 53 0
BBX 41 64 8 0
BITMAP
000FFFE00000
00FFFFE00000
1FFFFFE00000
7FFFFFE00000
7FFFFFE00000
7FFFFFE00000
7FFFFFE00000
7FFFFFE00000
7FFFFFE00000
7FFFFFE00000
7FFFFFE00000
7FF3FFE00000
7F03FFE00000
6003FFE00000
0003FFE00000
0003FFE00000
0003FFE00000
0003FFE00000
0003FFE00000
0003FFE00000
0003FFE00000
0003FFE00000
0003FFE00000
0003FFE00000
0003FFE00000
0003FFE00000
0003FFE00000
0003FFE00000
0003FFE00000
0003FFE00000
0003FFE00000
0003FFE00000
0003FFE00000
0003FFE00000
0003FFE00000
0003FFE00000
0003FFE00000
0003FFE00000
0003FFE00000
0003FFE00000
0003FFE00000
0003FFE00000
0003FFE00000
0003FFE00000
0003FFE00000
0003FFE00000
0003FFE00000
0003FFE00000
0003FFE00000
0003FFE00000
0003FFE00000
0003FFE00000
0003FFE00000
FFFFFFFFFF80
FFFFFFFFFF80
FFFFFFFFFF80
FFFFFFFFFF80
FFFFFFFFFF80
FFFFFFFFFF80
FFFFFFFFFF80
FFFFFFFFFF80
FFFFFFFFFF80
FFFFFFFFFF80
FFFFFFFFFF80
ENDCHAR
STARTCHAR two
ENCODING 50
SWIDTH 602 0
DWIDTH 53 0
BBX 41 65 5 0
BITMAP
000FFF800000
01FFFFF80000
1FFFFFFE0000
7FFFFFFF8000
7FFFFFFFE000
7FFFFFFFF000
7FFFFFFFF800
7FFFFFFFFC00
7FFFFFFFFE00
7FFFFFFFFE00
7FFFFFFFFF00
7FF803FFFF00
7F0000FFFF00
7800003FFF80
4000003FFF80
0000001FFF80
0000001FFF80
0000000FFF80
0000000FFF80
0000000FFF80
0000000FFF80
0000000FFF80
0000000FFF00
0000001FFF00
0000001FFF00
0000003FFE00
0000003FFE00
0000007FFC00
000000FFFC00
000000FFF800
000001FFF000
000003FFF000
000007FFE000
00000FFFC000
00001FFF8000
00003FFF0000
00007FFE0000
0000FFFC0000
0001FFF80000
0003FFF00000
0007FFE00000
000FFFC00000
001FFF800000
001FFF000000
003FFE000000
007FFC000000
00FFF8000000
01FFF0000000
03FFE0000000
07FFC0000000
0FFF80000000
1FFF00000000
3FFE00000000
7FFC00000000
FFFFFFFFFF80
FFFFFFFFFF80
FFFFFFFFFF80
FFFFFFFFFF80
FFFFFFFFFF80
FFFFFFFFFF80
FFFFFFFFFF80
FFFFFFFFFF80
FFFFFFFFFF80
FFFFFFFFFF80
FFFFFFFFFF80
ENDCHAR
STARTCHAR three
ENCODING 51
SWIDTH 602 0
DWIDTH 53 0
BBX 42 66 5 -1
BITMAP
000FFF800000
01FFFFF80000
0FFFFFFE0000
3FFFFFFF8000
3FFFFFFFE000
3FFFFFFFF000
3FFFFFFFF800
3FFFFFFFF800
3FFFFFFFFC00
3FFFFFFFFE00
3FFFFFFFFE00
3FF803FFFE00
3F80007FFF00
3C00003FFF00
2000001FFF00
0000001FFF00
0000000FFF00
0000000FFF00
0000000FFF00
0000000FFF00
0000000FFE00
0000001FFE00
0000003FFE00
0000007FFC00
000003FFFC00
001FFFFFF800
001FFFFFF000
001FFFFFE000
001FFFFF8000
001FFFFE0000
001FFFF80000
001FFFFF0000
001FFFFFC000
001FFFFFF000
001FFFFFF800
001FFFFFFC00
000003FFFE00
0000007FFF00
0000001FFF00
0000000FFF80
0000000FFF80
00000007FF80
00000007FFC0
00000003FFC0
00000003FFC0
00000003FFC0
00000003FFC0
00000003FFC0
00000003FFC0
00000007FFC0
00000007FFC0
8000000FFFC0
F000001FFF80
FE00003FFF80
FFF001FFFF80
FFFFFFFFFF00
FFFFFFFFFF00
FFFFFFFFFE00
FFFFFFFFFE00
FFFFFFFFFC00
FFFFFFFFF800
FFFFFFFFE000
FFFFFFFFC000
7FFFFFFF0000
07FFFFFC0000
001FFF800000
ENDCHAR
STARTCHAR four
ENCODING 52
SWIDTH 602 0
DWIDTH 53 0
BBX 45 64 4 0
BITMAP
000000FFFC00
000000FFFC00
000001FFFC00
000003FFFC00
000003FFFC00
000007FFFC00
00000FFFFC00
00000FFFFC00
00001FFFFC00
00003FFFFC00
00003FFFFC00
00007FFFFC00
0000FFFFFC00
0000FFFFFC00
0001FFFFFC00
0003FF7FFC00
0003FE7FFC00
0007FE7FFC00
0007FC7FFC00
000FF87FFC00
001FF87FFC00
001FF07FFC00
003FF07FFC00
007FE07FFC00
007FC07FFC00
00FFC07FFC00
01FF807FFC00
01FF007FFC00
03FF007FFC00
07FE007FFC00
07FC007FFC00
0FFC007FFC00
1FF8007FFC00
1FF8007FFC00
3FF0007FFC00
7FE0007FFC00
7FE0007FFC00
FFC0007FFC00
FF80007FFC00
FFFFFFFFFFF8
FFFFFFFFFFF8
FFFFFFFFFFF8
FFFFFFFFFFF8
FFFFFFFFFFF8
FFFFFFFFFFF8
FFFFFFFFFFF8
FFFFFFFFFFF8
FFFFFFFFFFF8
FFFFFFFFFFF8
FFFFFFFFFFF8
0000007FFC00
0000007FFC00
0000007FFC00
0000007FFC00
0000007FFC00
0000007FFC00
0000007FFC00
0000007FFC00
0000007FFC00
0000007FFC00
0000007FFC00
0000007FFC00
0000007FFC00
0000007FFC00
ENDCHAR
STARTCHAR five
ENCODING 53
SWIDTH 602 0
DWIDTH 53 0
BBX 41 65 6 -1
BITMAP
3FFFFFFFF800
3FFFFFFFF800
3FFFFFFFF800
3FFFFFFFF800
3FFFFFFFF800
3FFFFFFFF800
3FFFFFFFF800
3FFFFFFFF800
3FFFFFFFF800
3FFFFFFFF800
3FFFFFFFF800
3FF000000000
3FF000000000
3FF000000000
3FF000000000
3FF000000000
3FF000000000
3FF000000000
3FF000000000
3FF000000000
3FF000000000
3FF000000000
3FF3FF000000
3FFFFFF00000
3FFFFFFC0000
3FFFFFFF0000
3FFFFFFF8000
3FFFFFFFC000
3FFFFFFFE000
3FFFFFFFF000
3FFFFFFFF800
3FFFFFFFFC00
3FFFFFFFFC00
3FC00FFFFE00
3C0001FFFE00
2000007FFF00
0000003FFF00
0000001FFF00
0000000FFF80
0000000FFF80
00000007FF80
00000007FF80
00000007FF80
00000007FF80
00000007FF80
00000007FF80
00000007FF80
0000000FFF80
0000000FFF80
0000001FFF00
0000003FFF00
8000007FFF00
F00001FFFE00
FF800FFFFE00
FFFFFFFFFC00
FFFFFFFFFC00
FFFFFFFFF800
FFFFFFFFF000
FFFFFFFFE000
FFFFFFFFC000
FFFFFFFF8000
FFFFFFFF0000
7FFFFFFC0000
07FFFFE00000
003FFE000000
ENDCHAR
STARTCHAR six
ENCODING 54
SWIDTH 602 0
DWIDTH 53 0
BBX 43 66 6 -1
BITMAP
00000FFE0000
0000FFFFE000
0003FFFFFC00
000FFFFFFE00
003FFFFFFE00
007FFFFFFE00
00FFFFFFFE00
01FFFFFFFE00
03FFFFFFFE00
03FFFFFFFE00
07FFFC03FE00
0FFFE0007E00
0FFFC0001E00
1FFF80000600
1FFF00000200
1FFE00000000
3FFC00000000
3FFC00000000
3FF800000000
7FF800000000
7FF800000000
7FF800000000
7FF00FFC0000
7FF07FFF8000
FFF1FFFFE000
FFF3FFFFF000
FFF7FFFFF800
FFFFFFFFFC00
FFFFFFFFFE00
FFFFFFFFFF00
FFFFFFFFFF00
FFFFFFFFFF80
FFFFF07FFF80
FFFFC01FFFC0
FFFF800FFFC0
FFFF0007FFC0
FFFE0003FFC0
FFFE0003FFE0
FFFE0003FFE0
FFFC0001FFE0
FFFC0001FFE0
FFFC0001FFE0
FFFC0001FFE0
7FFC0001FFE0
7FFC0001FFE0
7FFC0001FFE0
7FFC0001FFE0
7FFC0001FFE0
7FFC0001FFE0
3FFE0003FFC0
3FFE0003FFC0
3FFE0003FFC0
1FFF0007FFC0
1FFF800FFF80
1FFFC01FFF80
0FFFF07FFF80
0FFFFFFFFF00
07FFFFFFFF00
03FFFFFFFE00
03FFFFFFFC00
01FFFFFFF800
00FFFFFFF000
003FFFFFE000
001FFFFF8000
0007FFFE0000
00007FF00000
ENDCHAR
STARTCHAR seven
ENCODING 55
SWIDTH 602 0
DWIDTH 53 0
BBX 41 64 6 0
BITMAP
FFFFFFFFFF80
FFFFFFFFFF80
FFFFFFFFFF80
FFFFFFFFFF80
FFFFFFFFFF80
FFFFFFFFFF80
FFFFFFFFFF80
FFFFFFFFFF80
FFFFFFFFFF80
FFFFFFFFFF80
FFFFFFFFFF00
0000001FFF00
0000003FFF00
0000003FFE00
0000003FFE00
0000007FFC00
0000007FFC00
000000FFFC00
000000FFF800
000000FFF800
000001FFF000
000001FFF000
000003FFF000
000003FFE000
000003FFE000
000007FFC000
000007FFC000
000007FFC000
00000FFF8000
00000FFF8000
00001FFF0000
00001FFF0000
00001FFF0000
00003FFE0000
00003FFE0000
00007FFC0000
00007FFC0000
00007FFC0000
0000FFF80000
0000FFF80000
0001FFF00000
0001FFF00000
0001FFF00000
0003FFE00000
0003FFE00000
0007FFC00000
0007FFC00000
0007FFC00000
000FFF800000
000FFF800000
001FFF000000
001FFF000000
001FFF000000
003FFE000000
003FFE000000
007FFC000000
007FFC000000
007FFC000000
00FFF8000000
00FFF8000000
01FFF0000000
01FFF0000000
01FFF0000000
03FFE0000000
ENDCHAR
STARTCHAR eight
ENCODING 56
SWIDTH 602 0
DWIDTH 53 0
BBX 42 66 6 -1
BITMAP
0000FFC00000
000FFFFC0000
003FFFFF0000
00FFFFFFC000
01FFFFFFE000
03FFFFFFF000
07FFFFFFF800
07FFFFFFF800
0FFFFFFFFC00
1FFFFFFFFE00
1FFFC0FFFE00
1FFF003FFE00
3FFE001FFF00
3FFC000FFF00
3FFC000FFF00
3FF80007FF00
3FF80007FF00
3FF80007FF00
3FF80007FF00
3FF80007FF00
3FF80007FF00
1FFC000FFE00
1FFC000FFE00
1FFE001FFE00
0FFF003FFC00
0FFFC0FFFC00
07FFFFFFF800
03FFFFFFF000
01FFFFFFE000
00FFFFFFC000
001FFFFF0000
007FFFFF8000
01FFFFFFE000
03FFFFFFF000
07FFFFFFF800
0FFFFFFFFC00
1FFFC0FFFE00
3FFE001FFF00
3FFC000FFF00
7FF80007FF80
7FF00003FF80
7FF00003FF80
FFF00003FFC0
FFE00001FFC0
FFE00001FFC0
FFE00001FFC0
FFE00001FFC0
FFE00001FFC0
FFE00001FFC0
FFF00003FFC0
FFF00003FFC0
FFF00003FFC0
7FF80007FF80
7FFC000FFF80
7FFE001FFF80
3FFFC0FFFF00
3FFFFFFFFF00
1FFFFFFFFE00
1FFFFFFFFE00
0FFFFFFFFC00
07FFFFFFF800
03FFFFFFF000
01FFFFFFE000
007FFFFF8000
001FFFFE0000
0001FFE00000
ENDCHAR
STARTCHAR nine
ENCODING 57
SWIDTH 602 0
DWIDTH 53 0
BBX 43 66 5 -1
BITMAP
0001FFC00000
000FFFFC0000
003FFFFF0000
00FFFFFF8000
01FFFFFFE000
03FFFFFFF000
07FFFFFFF800
0FFFFFFFF800
1FFFFFFFFC00
1FFFFFFFFE00
3FFFC0FFFE00
3FFF007FFF00
3FFE003FFF00
7FFC001FFF00
7FF8000FFF80
7FF8000FFF80
FFF8000FFF80
FFF00007FFC0
FFF00007FFC0
FFF00007FFC0
FFF00007FFC0
FFF00007FFC0
FFF00007FFC0
FFF00007FFE0
FFF00007FFE0
FFF00007FFE0
FFF8000FFFE0
FFF8000FFFE0
FFF8000FFFE0
7FFC001FFFE0
7FFE003FFFE0
7FFF007FFFE0
7FFFC0FFFFE0
3FFFFFFFFFE0
3FFFFFFFFFE0
1FFFFFFFFFE0
1FFFFFFFFFE0
0FFFFFFFFFE0
07FFFFFFFFE0
03FFFFFDFFE0
01FFFFF9FFE0
00FFFFF1FFC0
003FFFC1FFC0
0007FE03FFC0
00000003FFC0
00000003FFC0
00000003FFC0
00000007FF80
00000007FF80
0000000FFF80
0000000FFF00
0800001FFF00
0C00003FFF00
0F00007FFE00
0FC000FFFE00
0FF807FFFC00
0FFFFFFFF800
0FFFFFFFF800
0FFFFFFFF000
0FFFFFFFE000
0FFFFFFFC000
0FFFFFFF8000
0FFFFFFE0000
07FFFFF80000
00FFFFE00000
000FFE000000
ENDCHAR
STARTCHAR M
ENCODING 77
SWIDTH 602 0
DWIDTH 53 0
BBX 45 64 4 0
BITMAP
FFFE0003FFF8
FFFE0007FFF8
FFFF0007FFF8
FFFF0007FFF8
FFFF0007FFF8
FFFF800FFFF8
FFFF800FFFF8
FFFF800FFFF8
FFFF800FFFF8
FFFFC01FFFF8
FFFFC01FFFF8
FFFFC01FFFF8
FFFFC01FFFF8
FFFFE03FFFF8
FFFFE03FFFF8
FFEFE03FBFF8
FFEFE03FBFF8
FFEFF07FBFF8
FFEFF07FBFF8
FFE7F07F3FF8
FFE7F0FF3FF8
FFE7F8FF3FF8
FFE7F8FF3FF8
FFE3F8FF3FF8
FFE3FDFE3FF8
FFE3FDFE3FF8
FFE3FDFE3FF8
FFE3FDFE3FF8
FFE1FFFC3FF8
FFE1FFFC3FF8
FFE1FFFC3FF8
FFE1FFFC3FF8
FFE0FFF83FF8
FFE0FFF83FF8
FFE0FFF83FF8
FFE0FFF83FF8
FFE07FF03FF8
FFE07FF03FF8
FFE07FF03FF8
FFE07FF03FF8
FFE03FF03FF8
FFE000003FF8
FFE000003FF8
FFE000003FF8
FFE000003FF8
FFE000003FF8
FFE000003FF8
FFE000003FF8
FFE000003FF8
FFE000003FF8
FFE000003FF8
FFE000003FF8
FFE000003FF8
FFE000003FF8
FFE000003FF8
FFE000003FF8
FFE000003FF8
FFE000003FF8
FFE000003FF8
FFE000003FF8
FFE000003FF8
FFE000003FF8
FFE000003FF8
FFE000003FF8
ENDCHAR
ENDFONT
